<svg xmlns="http://www.w3.org/2000/svg" width="47.626" height="37.796" viewBox="0 0 47.626 37.796">
  <path id="Path_4010" data-name="Path 4010" d="M7.7,27.744H6.251a.68.68,0,1,1,0-1.361H7.7a.68.68,0,1,1,0,1.361Zm3.966,0H10.216a.68.68,0,0,1,0-1.361h1.446a.68.68,0,1,1,0,1.361Zm3.965,0H14.181a.68.68,0,1,1,0-1.361h1.446a.68.68,0,1,1,0,1.361ZM7.7,30.937H6.251a.68.68,0,1,1,0-1.361H7.7a.68.68,0,1,1,0,1.361Zm3.966,0H10.216a.68.68,0,0,1,0-1.361h1.446a.68.68,0,1,1,0,1.361Zm3.965,0H14.181a.68.68,0,1,1,0-1.361h1.446a.68.68,0,1,1,0,1.361ZM7.7,34.13H6.251a.68.68,0,1,1,0-1.361H7.7a.68.68,0,1,1,0,1.361Zm3.966,0H10.216a.68.68,0,0,1,0-1.361h1.446a.68.68,0,1,1,0,1.361Zm3.965,0H14.181a.68.68,0,1,1,0-1.361h1.446a.68.68,0,1,1,0,1.361ZM7.7,37.323H6.251a.68.68,0,1,1,0-1.361H7.7a.68.68,0,1,1,0,1.361Zm3.966,0H10.216a.68.68,0,0,1,0-1.361h1.446a.68.68,0,1,1,0,1.361Zm3.965,0H14.181a.68.68,0,1,1,0-1.361h1.446a.68.68,0,1,1,0,1.361ZM7.7,40.516H6.251a.68.68,0,1,1,0-1.361H7.7a.68.68,0,1,1,0,1.361Zm3.966,0H10.216a.68.68,0,1,1,0-1.361h1.446a.68.68,0,1,1,0,1.361Zm3.965,0H14.181a.68.68,0,1,1,0-1.361h1.446a.68.68,0,1,1,0,1.361ZM7.7,43.709H6.251a.68.68,0,0,1,0-1.361H7.7a.68.68,0,0,1,0,1.361Zm3.966,0H10.216a.68.68,0,0,1,0-1.361h1.446a.68.68,0,0,1,0,1.361Zm3.965,0H14.181a.68.68,0,0,1,0-1.361h1.446a.68.68,0,1,1,0,1.361Zm7.831-31.9a.68.68,0,0,1-.68-.68V9.842a.68.68,0,0,1,1.361,0v1.284A.68.68,0,0,1,23.458,11.806Zm-3.1.791a.68.68,0,0,1-.68-.68V10.633a.68.68,0,0,1,1.361,0v1.284A.68.68,0,0,1,20.356,12.6Zm3.1,4.327a.68.68,0,0,1-.68-.68V14.96a.68.68,0,1,1,1.361,0v1.284A.68.68,0,0,1,23.458,16.924Zm-3.1.791a.68.68,0,0,1-.68-.68V15.751a.68.68,0,0,1,1.361,0v1.284a.68.68,0,0,1-.68.68Zm3.1,4.329a.68.68,0,0,1-.68-.68V20.077a.68.68,0,1,1,1.361,0v1.287A.68.68,0,0,1,23.458,22.044Zm-3.1.789a.68.68,0,0,1-.68-.68V20.869a.68.68,0,0,1,1.361,0v1.284A.68.68,0,0,1,20.356,22.833Zm3.1,4.326a.68.68,0,0,1-.68-.68V25.194a.68.68,0,1,1,1.361,0v1.284A.68.68,0,0,1,23.458,27.159Zm-3.1.791a.68.68,0,0,1-.68-.68V25.986a.68.68,0,0,1,1.361,0V27.27A.68.68,0,0,1,20.356,27.95Zm3.1,4.327a.68.68,0,0,1-.68-.68V30.312a.68.68,0,0,1,1.361,0V31.6A.68.68,0,0,1,23.458,32.276Zm-3.1.79a.68.68,0,0,1-.68-.68V31.1a.68.68,0,0,1,1.361,0v1.283A.68.68,0,0,1,20.356,33.066Zm3.1,4.328a.68.68,0,0,1-.68-.68V35.43a.68.68,0,0,1,1.361,0v1.284A.68.68,0,0,1,23.458,37.394Zm-3.1.791a.68.68,0,0,1-.68-.68V36.221a.68.68,0,0,1,1.361,0v1.284A.68.68,0,0,1,20.356,38.185Zm3.1,4.326a.68.68,0,0,1-.68-.68V40.55a.68.68,0,1,1,1.361,0v1.284A.68.68,0,0,1,23.458,42.511Zm-3.1.792a.68.68,0,0,1-.68-.68V41.338a.68.68,0,0,1,1.361,0v1.284A.68.68,0,0,1,20.356,43.3Zm7.8-32.145a.68.68,0,0,1-.68-.68V9.2a.68.68,0,1,1,1.361,0v1.283A.68.68,0,0,1,28.153,11.158Zm2.3.867a.68.68,0,0,1-.68-.68V10.062a.68.68,0,1,1,1.361,0v1.284A.68.68,0,0,1,30.45,12.026Zm2.3.867a.68.68,0,0,1-.68-.68V10.929a.68.68,0,0,1,1.361,0v1.284a.68.68,0,0,1-.68.68Zm-4.594,3.369a.68.68,0,0,1-.68-.68V14.295a.68.68,0,1,1,1.361,0v1.286A.68.68,0,0,1,28.153,16.261Zm2.3.864a.68.68,0,0,1-.68-.68V15.162a.68.68,0,0,1,1.361,0v1.283A.68.68,0,0,1,30.45,17.125Zm2.3.867a.68.68,0,0,1-.68-.68V16.028a.68.68,0,0,1,1.361,0v1.284A.68.68,0,0,1,32.747,17.992Zm-4.594,3.366a.68.68,0,0,1-.68-.68V19.391a.68.68,0,0,1,1.361,0v1.284a.68.68,0,0,1-.68.684Zm2.3.867a.68.68,0,0,1-.68-.68V20.261a.68.68,0,0,1,1.361,0v1.284A.68.68,0,0,1,30.45,22.225Zm2.3.866a.68.68,0,0,1-.68-.68V21.128a.68.68,0,0,1,1.361,0v1.284A.68.68,0,0,1,32.747,23.091Zm-4.594,3.366a.68.68,0,0,1-.68-.68V24.494a.68.68,0,0,1,1.361,0v1.284A.68.68,0,0,1,28.153,26.458Zm2.3.867a.68.68,0,0,1-.68-.68V25.36a.68.68,0,0,1,1.361,0v1.284A.68.68,0,0,1,30.45,27.325Zm2.3.867a.68.68,0,0,1-.68-.68V26.227a.68.68,0,0,1,1.361,0v1.284A.68.68,0,0,1,32.747,28.191Zm-4.594,3.366a.68.68,0,0,1-.68-.68V29.6a.68.68,0,1,1,1.361,0V30.88a.68.68,0,0,1-.68.677Zm2.3.867a.68.68,0,0,1-.68-.68V30.46a.68.68,0,1,1,1.361,0v1.284A.68.68,0,0,1,30.45,32.424Zm2.3.867a.68.68,0,0,1-.68-.68V31.327a.68.68,0,1,1,1.361,0V32.61A.68.68,0,0,1,32.747,33.291Zm-4.594,3.366a.68.68,0,0,1-.68-.68V34.692a.68.68,0,0,1,1.361,0v1.284A.68.68,0,0,1,28.153,36.657Zm2.3.867a.68.68,0,0,1-.68-.68V35.559a.68.68,0,0,1,1.361,0v1.284A.68.68,0,0,1,30.45,37.523Zm2.3.867a.68.68,0,0,1-.68-.68V36.426a.68.68,0,0,1,1.361,0V37.71A.68.68,0,0,1,32.747,38.39Zm-4.594,3.366a.68.68,0,0,1-.68-.68V39.792a.68.68,0,0,1,1.361,0v1.284A.68.68,0,0,1,28.153,41.756Zm2.3.867a.68.68,0,0,1-.68-.68V40.659a.68.68,0,1,1,1.361,0v1.284A.68.68,0,0,1,30.45,42.623Zm2.3.867a.68.68,0,0,1-.68-.68V41.525a.68.68,0,0,1,1.361,0v1.284A.68.68,0,0,1,32.747,43.49Zm8.605-17.873a.68.68,0,0,1-.68-.68v-.688a.68.68,0,1,1,1.361,0v.688A.68.68,0,0,1,41.352,25.616Zm2.293,1.441a.68.68,0,0,1-.68-.68v-.688a.68.68,0,1,1,1.361,0v.688A.68.68,0,0,1,43.645,27.057Zm-2.293,1.919a.68.68,0,0,1-.68-.68v-.687a.68.68,0,0,1,1.361,0V28.3a.68.68,0,0,1-.68.68Zm2.293,1.441a.68.68,0,0,1-.68-.68v-.684a.68.68,0,1,1,1.361,0v.688A.68.68,0,0,1,43.645,30.417Zm-2.293,1.919a.68.68,0,0,1-.68-.68v-.688a.68.68,0,0,1,1.361,0v.688A.68.68,0,0,1,41.352,32.336Zm2.293,1.441a.68.68,0,0,1-.68-.68v-.688a.68.68,0,0,1,1.361,0V33.1A.68.68,0,0,1,43.645,33.777ZM41.352,35.7a.68.68,0,0,1-.68-.68v-.688a.68.68,0,0,1,1.361,0v.688A.68.68,0,0,1,41.352,35.7Zm2.293,1.44a.68.68,0,0,1-.68-.68v-.688a.68.68,0,1,1,1.361,0v.688A.68.68,0,0,1,43.645,37.137Zm-2.293,1.917a.68.68,0,0,1-.68-.68v-.685a.68.68,0,0,1,1.361,0v.685A.68.68,0,0,1,41.352,39.054ZM43.645,40.5a.68.68,0,0,1-.68-.68v-.688a.68.68,0,0,1,1.361,0v.688A.68.68,0,0,1,43.645,40.5Zm-2.293,1.919a.68.68,0,0,1-.68-.68v-.688a.68.68,0,0,1,1.361,0v.688A.68.68,0,0,1,41.352,42.417Zm2.293,1.44a.68.68,0,0,1-.68-.68v-.688a.68.68,0,1,1,1.361,0v.688A.68.68,0,0,1,43.645,43.857Zm4.532,2.453H1.911a.68.68,0,1,1,0-1.361H48.177a.68.68,0,0,1,0,1.361Z" transform="translate(-1.231 -8.515)" fill="#013147"/>
</svg>
